<?xml version="1.0" encoding="UTF-8" standalone="no"?><svg xmlns="http://www.w3.org/2000/svg" xmlns:xlink="http://www.w3.org/1999/xlink" fill="#cba35c" height="467.9" preserveAspectRatio="xMidYMid meet" version="1" viewBox="27.0 21.9 457.7 467.9" width="457.7" zoomAndPan="magnify"><g id="change1_2"><path d="M279.519 52.338H290.075V62.893H279.519z" fill="inherit"/><path d="M352.711 87.795H363.266V98.35H352.711z" fill="inherit"/><path d="M362.477 277.367H373.032V287.923H362.477z" fill="inherit"/><path d="M395.219 197.757H405.774V208.312H395.219z" fill="inherit"/></g><g id="change1_3"><path d="M288.712,339.557c12.735,21.258,14.831,34.647,11.388,38.091c-0.243,0.243-0.564,0.468-0.963,0.666l-1.076,0.406 c-4.301,1.215-14.194-0.047-32.143-10.183c-19.942-11.262-43.15-29.69-65.349-51.89c-22.2-22.2-40.627-45.408-51.889-65.35 c-8.941-15.832-10.976-25.396-10.499-30.385l1.457-3.857c2.749-2.586,13.699-3.069,37.76,11.291l6.15-10.304 c-25.35-15.131-43.491-18.384-52.464-9.412c-2.542,2.542-4.115,5.766-4.735,9.648L28.212,478.176 c-1.192,3.154-0.423,6.73,1.959,9.113c1.638,1.639,3.841,2.515,6.083,2.515c1.019,0,2.045-0.181,3.03-0.554l259.702-98.05 l3.188-1.204c0.481-0.158,0.948-0.338,1.406-0.532l2.286-0.864l-0.093-0.245c1.013-0.626,1.954-1.363,2.812-2.222 c9.009-9.009,5.696-27.247-9.578-52.744L288.712,339.557z M276.425,386.889l-161.29,60.896 c-23.408-2.859-42.515-11.318-55.509-18.834l14.667-38.842c17.092,10.232,45.182,22.794,80.057,22.794 c29.692,0,64.299-9.11,101.209-36.517C262.912,380.803,269.941,384.379,276.425,386.889z M78.605,378.688l14.205-37.62 c12.122,8.401,31.821,18.294,57.377,18.294c17.393,0,37.502-4.6,59.758-17.361c11.58,10.32,23.411,19.701,34.763,27.429 C170.096,422.415,106.459,395.907,78.605,378.688z M200.638,333.445c-49.895,26.861-86.847,8.308-103.44-3.996l11.689-30.957 c8.166,5.457,19.676,10.554,34.219,10.554c8.44,0,17.9-1.721,28.311-6.081c6.426,7.413,13.349,14.851,20.667,22.168 C194.897,327.946,197.754,330.717,200.638,333.445z M138.231,257.199c6.377,11.292,14.92,23.543,25.042,36.043 c-23.339,8.371-40.313,0.835-50.008-6.345l17.206-45.565C132.418,246.191,135.001,251.479,138.231,257.199z M55.333,440.319 c9.943,5.591,22.937,11.522,38.367,15.559l-51.598,19.481L55.333,440.319z" fill="inherit"/></g><g id="change1_1"><path d="M386.651,113.02l13.384,4.161l4.164,13.395c0.703,2.246,2.582,3.868,4.907,4.233c0.325,0.051,0.649,0.076,0.971,0.076 c1.976,0,3.83-0.946,4.995-2.597l8.093-11.443l14.017,0.179c2.324,0.026,4.476-1.253,5.545-3.347 c1.07-2.095,0.863-4.569-0.547-6.465l-8.383-11.233l4.502-13.273l0.002-0.007c0.752-2.228,0.188-4.644-1.476-6.307 c-1.663-1.662-4.08-2.229-6.313-1.473l-13.273,4.501l-11.23-8.38c-1.886-1.41-4.361-1.623-6.46-0.554 c-2.099,1.068-3.384,3.195-3.354,5.551l0.179,14.015l-11.44,8.091c-1.926,1.36-2.893,3.652-2.521,5.98 S384.411,112.329,386.651,113.02z M405.84,102.053c1.631-1.165,2.592-3.058,2.57-5.075l-0.066-5.223l4.175,3.115 c1.612,1.209,3.716,1.55,5.655,0.903l4.947-1.677l-1.682,4.957c-0.645,1.912-0.309,4.018,0.898,5.633l3.123,4.187l-5.235-0.067 c-1.999-0.035-3.897,0.94-5.079,2.594l-3.016,4.265l-1.545-4.971c-0.597-1.938-2.108-3.455-4.046-4.057l-4.988-1.551 L405.84,102.053z" fill="inherit"/><path d="M483.662,325.633c-1.074-2.111-3.221-3.381-5.584-3.373l-18.648,0.238l-10.771-15.231c-1.369-1.933-3.67-2.899-6.009-2.53 c-2.338,0.371-4.228,2.005-4.932,4.268l-5.536,17.809l-17.813,5.537c-2.26,0.704-3.894,2.594-4.265,4.932s0.599,4.641,2.535,6.012 l15.227,10.768l-0.238,18.646c-0.031,2.37,1.262,4.512,3.374,5.587c0.894,0.455,1.855,0.68,2.812,0.68 c1.303,0,2.594-0.416,3.686-1.233l14.947-11.153l17.662,5.988c2.246,0.762,4.678,0.193,6.353-1.481s2.243-4.109,1.481-6.353 l-5.988-17.662l11.149-14.941C484.524,330.238,484.738,327.746,483.662,325.633z M459.607,348.033l3.184,9.389l-9.373-3.178 c-1.936-0.664-4.068-0.326-5.694,0.894l-7.945,5.929l0.126-9.889c0.034-2.049-0.945-3.975-2.609-5.146l-8.095-5.725l9.479-2.946 c1.932-0.604,3.446-2.119,4.054-4.063l2.943-9.467l5.717,8.084c1.18,1.675,3.102,2.651,5.131,2.62l9.912-0.126l-5.92,7.934 C459.287,343.979,458.95,346.113,459.607,348.033z" fill="inherit"/><path d="M142.318,63.984l17.25,12.199l-0.27,21.132c-0.028,2.374,1.268,4.519,3.383,5.596c0.896,0.457,1.86,0.682,2.819,0.682 c1.306,0,2.602-0.417,3.702-1.237l16.933-12.637l20.01,6.786c2.25,0.764,4.69,0.194,6.371-1.485 c1.682-1.68,2.252-4.122,1.489-6.375l-6.785-20.009l12.634-16.931c1.422-1.903,1.636-4.401,0.559-6.52s-3.25-3.415-5.604-3.388 l-21.127,0.27l-12.195-17.245c-1.37-1.943-3.682-2.921-6.029-2.55c-2.349,0.37-4.247,2.009-4.955,4.282l-6.272,20.177l-20.18,6.272 c-2.27,0.707-3.91,2.605-4.279,4.954C139.405,60.308,140.381,62.618,142.318,63.984z M170.717,57.284 c1.936-0.605,3.455-2.121,4.07-4.076l3.688-11.863l7.171,10.14c1.161,1.644,3.051,2.622,5.094,2.622c0.016,0,0.032,0,0.048,0 l12.422-0.159l-7.426,9.952c-1.226,1.64-1.563,3.775-0.906,5.702l3.989,11.765l-11.754-3.986c-1.936-0.662-4.073-0.325-5.708,0.898 l-9.956,7.43l0.159-12.409c0.031-2.047-0.949-3.974-2.619-5.153l-10.143-7.173L170.717,57.284z" fill="inherit"/><path d="M348.734,243.247l2.036,11.826c25.979-4.473,52.59-2.429,76.956,5.91l3.885-11.353 C405.348,240.641,376.689,238.432,348.734,243.247z" fill="inherit"/><path d="M238.519,307.361l8.485,8.484l13.925-13.924c19.895-19.896,44.496-34.586,71.143-42.482l-3.408-11.505 c-28.559,8.462-54.915,24.197-76.22,45.501L238.519,307.361z" fill="inherit"/><path d="M273.393,106.331c-1.406-6.921-3.275-13.812-5.558-20.479l-11.354,3.886c2.114,6.179,3.848,12.565,5.151,18.981 L273.393,106.331z" fill="inherit"/><path d="M275.427,118.756l-11.907,1.488c5.154,41.237-6.73,84.486-32.608,118.658l9.566,7.244 C268.228,209.503,280.966,163.071,275.427,118.756z" fill="inherit"/><path d="M215.543,256.535l-13.925,13.925l8.485,8.485l13.925-13.925c1.977-1.977,3.936-4.028,5.823-6.097l-8.867-8.086 C219.221,252.771,217.39,254.688,215.543,256.535z" fill="inherit"/><path d="M371.543,319.176c9.06,2.756,18.19,6.415,27.14,10.874l5.352-10.74c-9.545-4.756-19.302-8.663-28.997-11.614 L371.543,319.176z" fill="inherit"/><path d="M258.229,328.715l-9.516,9.516l8.485,8.485l9.516-9.516c20.616-20.616,52.771-28.669,88.222-22.098l2.188-11.799 C317.727,295.998,281.682,305.262,258.229,328.715z" fill="inherit"/><path d="M197.906,113.182l-10.74,5.352c4.519,9.069,8.215,18.324,10.987,27.509l11.488-3.467 C206.674,132.744,202.727,122.854,197.906,113.182z" fill="inherit"/><path d="M170.5,260.018l8.485,8.485l9.516-9.516c23.451-23.451,32.714-59.494,25.413-98.886l-11.799,2.187 c6.57,35.448-1.485,67.601-22.099,88.214L170.5,260.018z" fill="inherit"/><path d="M344.372 108.201H356.372V225.488H344.372z" fill="inherit" transform="rotate(45.001 350.375 166.841)"/><path d="M230.296 241.877H308.383V253.876H230.296z" fill="inherit" transform="rotate(134.999 269.341 247.877)"/><path d="M214.186 279.966H226.186V314.094H214.186z" fill="inherit" transform="rotate(-134.999 220.186 297.032)"/></g></svg>