<?xml version="1.0" encoding="UTF-8" standalone="no"?><svg xmlns="http://www.w3.org/2000/svg" xmlns:xlink="http://www.w3.org/1999/xlink" fill="#ebcf89" height="38" preserveAspectRatio="xMidYMid meet" version="1" viewBox="-0.1 -0.0 500.3 38.0" width="500.3" zoomAndPan="magnify"><defs><clipPath id="a"><path d="M 217 23 L 240 23 L 240 37.929688 L 217 37.929688 Z M 217 23"/></clipPath><clipPath id="b"><path d="M 260 23 L 283 23 L 283 37.929688 L 260 37.929688 Z M 260 23"/></clipPath></defs><g><g id="change1_1"><path d="M 153.792969 14.53125 C 153.515625 14.671875 153.394531 15.070312 153.5625 15.929688 C 153.753906 16.765625 154.222656 18.09375 155.425781 19.859375 C 156.632812 21.601562 158.546875 23.855469 161.8125 25.988281 C 163.445312 27.039062 165.410156 28.074219 167.78125 28.8125 C 170.148438 29.566406 172.902344 30.035156 175.949219 29.972656 C 178.992188 29.917969 182.074219 29.296875 185.015625 28.15625 C 186.480469 27.570312 187.910156 26.851562 189.273438 25.988281 C 190.644531 25.132812 191.902344 24.140625 193.089844 23.109375 C 195.460938 21.042969 197.558594 18.808594 199.875 16.917969 C 201.027344 15.960938 202.253906 15.140625 203.566406 14.378906 C 204.890625 13.636719 206.304688 13.015625 207.777344 12.492188 C 210.734375 11.480469 213.964844 10.933594 217.285156 11.035156 C 217.699219 11.058594 218.121094 11.054688 218.535156 11.097656 C 218.953125 11.136719 219.371094 11.179688 219.789062 11.21875 C 220.621094 11.347656 221.464844 11.464844 222.292969 11.667969 C 223.957031 12.054688 225.613281 12.59375 227.214844 13.34375 C 230.398438 14.84375 233.421875 17.011719 235.914062 19.832031 C 238.40625 22.636719 240.425781 26.042969 241.578125 29.875 C 240.667969 26.160156 238.953125 22.699219 236.691406 19.707031 C 235.546875 18.222656 234.265625 16.851562 232.871094 15.621094 C 231.484375 14.386719 229.980469 13.289062 228.378906 12.375 C 226.78125 11.457031 225.101562 10.699219 223.371094 10.113281 C 221.632812 9.546875 219.851562 9.164062 218.066406 8.9375 C 216.277344 8.699219 214.476562 8.675781 212.703125 8.785156 C 211.8125 8.824219 210.9375 8.949219 210.058594 9.0625 C 209.191406 9.222656 208.320312 9.367188 207.472656 9.59375 C 205.769531 10.023438 204.105469 10.582031 202.53125 11.320312 C 200.957031 12.039062 199.4375 12.910156 198.050781 13.890625 C 195.28125 15.847656 192.976562 18.054688 190.660156 19.882812 C 188.359375 21.75 186.042969 23.121094 183.515625 24.046875 C 180.996094 24.945312 178.394531 25.429688 175.855469 25.472656 C 173.3125 25.523438 171.035156 25.164062 169.0625 24.59375 C 167.082031 24.035156 165.402344 23.242188 163.964844 22.445312 C 161.09375 20.820312 159.226562 19.109375 157.871094 17.824219 C 156.519531 16.519531 155.707031 15.570312 155.078125 15.050781 C 154.476562 14.515625 154.066406 14.386719 153.792969 14.53125" fill="inherit"/></g><g id="change1_2"><path d="M 0.03125 17.320312 C -0.125 17.589844 0.273438 18.136719 1.636719 19.175781 C 3.011719 20.183594 5.410156 21.632812 9.445312 23.070312 C 9.949219 23.242188 10.472656 23.453125 11.03125 23.609375 C 11.59375 23.765625 12.175781 23.929688 12.78125 24.101562 C 13.089844 24.1875 13.398438 24.273438 13.714844 24.363281 C 14.035156 24.429688 14.363281 24.503906 14.695312 24.574219 C 15.363281 24.714844 16.058594 24.863281 16.777344 25.015625 C 19.671875 25.515625 23.027344 25.898438 26.859375 25.960938 C 30.695312 26.023438 35.007812 25.769531 39.777344 25.070312 C 44.546875 24.375 49.777344 23.214844 55.40625 21.570312 C 66.699219 18.332031 77.847656 13.789062 89.742188 10.324219 C 90.484375 10.113281 91.230469 9.902344 91.980469 9.6875 C 92.730469 9.488281 93.484375 9.289062 94.238281 9.089844 C 95.75 8.71875 97.273438 8.347656 98.8125 8.007812 C 100.359375 7.703125 101.902344 7.34375 103.480469 7.097656 C 104.265625 6.960938 105.054688 6.824219 105.84375 6.6875 C 106.636719 6.574219 107.433594 6.460938 108.230469 6.347656 C 114.617188 5.4375 121.226562 5.054688 127.992188 5.140625 C 141.515625 5.367188 155.710938 7.621094 169.835938 12.554688 C 183.9375 17.46875 198.023438 25.027344 210.660156 35.789062 C 198.855469 25.1875 185.382812 17.164062 171.472656 11.664062 C 157.546875 6.15625 143.171875 3.113281 129.183594 2.304688 C 125.6875 2.140625 122.214844 2.027344 118.773438 2.136719 C 117.054688 2.144531 115.34375 2.265625 113.640625 2.34375 C 112.789062 2.386719 111.945312 2.472656 111.097656 2.535156 C 110.253906 2.609375 109.410156 2.65625 108.570312 2.761719 C 101.863281 3.46875 95.304688 4.65625 89.066406 6.332031 C 82.8125 7.964844 76.84375 9.9375 71.054688 11.851562 C 65.269531 13.773438 59.664062 15.664062 54.15625 17.246094 C 48.652344 18.851562 43.65625 19.988281 39.109375 20.710938 C 34.566406 21.4375 30.484375 21.765625 26.863281 21.8125 C 23.242188 21.863281 20.085938 21.640625 17.34375 21.328125 C 16.664062 21.226562 16.007812 21.128906 15.378906 21.03125 C 15.058594 20.984375 14.75 20.941406 14.445312 20.898438 C 14.144531 20.835938 13.847656 20.777344 13.558594 20.71875 C 12.976562 20.601562 12.417969 20.492188 11.882812 20.386719 C 11.34375 20.289062 10.847656 20.132812 10.359375 20.019531 C 6.464844 19.054688 4 18.117188 2.4375 17.617188 C 0.882812 17.089844 0.1875 17.050781 0.03125 17.320312" fill="inherit"/></g><g clip-path="url(#a)" id="change1_8"><path d="M 217.238281 26.621094 C 217.367188 26.90625 217.5625 27.144531 217.847656 27.320312 C 218.140625 27.5 218.511719 27.59375 219.023438 27.652344 C 220.042969 27.765625 221.550781 27.546875 224.085938 27.703125 C 225.351562 27.804688 226.679688 27.957031 228.066406 28.292969 C 229.453125 28.617188 230.898438 29.109375 232.351562 29.832031 C 233.070312 30.207031 233.789062 30.632812 234.496094 31.132812 C 235.195312 31.640625 235.878906 32.21875 236.519531 32.882812 C 237.800781 34.210938 238.902344 35.90625 239.546875 37.929688 C 239.324219 35.914062 238.710938 33.941406 237.746094 32.1875 C 236.796875 30.425781 235.542969 28.871094 234.125 27.574219 C 231.285156 24.984375 227.761719 23.453125 224.402344 23.214844 C 222.726562 23.09375 221.355469 23.289062 220.304688 23.570312 C 219.253906 23.878906 218.511719 24.242188 218.023438 24.628906 C 217.523438 24.996094 217.273438 25.378906 217.167969 25.707031 C 217.066406 26.039062 217.113281 26.335938 217.238281 26.621094" fill="inherit"/></g><g id="change1_3"><path d="M 231.328125 1.210938 C 231.273438 1.515625 231.292969 1.824219 231.421875 2.128906 C 231.550781 2.441406 231.792969 2.726562 232.160156 3.058594 C 232.894531 3.722656 234.195312 4.378906 236.113281 5.871094 C 237.054688 6.636719 238.027344 7.464844 238.949219 8.476562 C 239.878906 9.472656 240.769531 10.632812 241.539062 11.984375 C 241.917969 12.664062 242.265625 13.390625 242.566406 14.164062 C 242.851562 14.941406 243.089844 15.769531 243.253906 16.640625 C 243.574219 18.382812 243.5625 20.324219 243.007812 22.289062 C 243.910156 20.5625 244.480469 18.65625 244.660156 16.738281 C 244.855469 14.820312 244.699219 12.90625 244.273438 11.101562 C 243.421875 7.5 241.453125 4.359375 238.90625 2.34375 C 237.636719 1.335938 236.4375 0.746094 235.449219 0.398438 C 234.445312 0.0742188 233.65625 -0.0390625 233.054688 0.00390625 C 232.457031 0.03125 232.046875 0.203125 231.78125 0.417969 C 231.515625 0.632812 231.386719 0.90625 231.328125 1.210938" fill="inherit"/></g><g id="change1_4"><path d="M 346.207031 14.53125 C 346.484375 14.671875 346.605469 15.070312 346.4375 15.929688 C 346.246094 16.765625 345.777344 18.09375 344.574219 19.859375 C 343.367188 21.601562 341.453125 23.855469 338.1875 25.988281 C 336.554688 27.039062 334.589844 28.074219 332.21875 28.8125 C 329.851562 29.566406 327.097656 30.035156 324.050781 29.972656 C 321.007812 29.917969 317.925781 29.296875 314.984375 28.15625 C 313.519531 27.570312 312.089844 26.851562 310.726562 25.988281 C 309.355469 25.132812 308.097656 24.140625 306.910156 23.109375 C 304.539062 21.042969 302.441406 18.808594 300.125 16.917969 C 298.972656 15.960938 297.746094 15.140625 296.433594 14.378906 C 295.109375 13.636719 293.695312 13.015625 292.222656 12.492188 C 289.265625 11.480469 286.035156 10.933594 282.714844 11.035156 C 282.300781 11.058594 281.878906 11.054688 281.464844 11.097656 C 281.046875 11.136719 280.628906 11.179688 280.210938 11.21875 C 279.378906 11.347656 278.535156 11.464844 277.707031 11.667969 C 276.042969 12.054688 274.386719 12.59375 272.785156 13.34375 C 269.601562 14.84375 266.578125 17.011719 264.085938 19.832031 C 261.59375 22.636719 259.574219 26.042969 258.421875 29.875 C 259.332031 26.160156 261.046875 22.699219 263.308594 19.707031 C 264.453125 18.222656 265.734375 16.851562 267.128906 15.621094 C 268.515625 14.386719 270.019531 13.289062 271.621094 12.375 C 273.21875 11.457031 274.898438 10.699219 276.628906 10.113281 C 278.367188 9.546875 280.148438 9.164062 281.933594 8.9375 C 283.722656 8.699219 285.523438 8.675781 287.296875 8.785156 C 288.1875 8.824219 289.0625 8.949219 289.941406 9.0625 C 290.808594 9.222656 291.679688 9.367188 292.527344 9.59375 C 294.230469 10.023438 295.894531 10.582031 297.46875 11.320312 C 299.042969 12.039062 300.5625 12.910156 301.949219 13.890625 C 304.71875 15.847656 307.023438 18.054688 309.339844 19.882812 C 311.640625 21.75 313.957031 23.121094 316.484375 24.046875 C 319.003906 24.945312 321.605469 25.429688 324.144531 25.472656 C 326.6875 25.523438 328.964844 25.164062 330.9375 24.59375 C 332.917969 24.035156 334.597656 23.242188 336.035156 22.445312 C 338.90625 20.820312 340.773438 19.109375 342.128906 17.824219 C 343.480469 16.519531 344.292969 15.570312 344.921875 15.050781 C 345.523438 14.515625 345.933594 14.386719 346.207031 14.53125" fill="inherit"/></g><g id="change1_5"><path d="M 499.96875 17.320312 C 500.125 17.589844 499.726562 18.136719 498.363281 19.175781 C 496.988281 20.183594 494.589844 21.632812 490.554688 23.070312 C 490.050781 23.242188 489.527344 23.453125 488.96875 23.609375 C 488.40625 23.765625 487.824219 23.929688 487.21875 24.101562 C 486.910156 24.1875 486.601562 24.273438 486.285156 24.363281 C 485.964844 24.429688 485.636719 24.503906 485.304688 24.574219 C 484.636719 24.714844 483.941406 24.863281 483.222656 25.015625 C 480.328125 25.515625 476.976562 25.898438 473.140625 25.960938 C 469.304688 26.023438 464.992188 25.769531 460.226562 25.070312 C 455.453125 24.375 450.222656 23.214844 444.59375 21.570312 C 433.304688 18.332031 422.152344 13.789062 410.257812 10.324219 C 409.515625 10.113281 408.769531 9.902344 408.019531 9.6875 C 407.269531 9.488281 406.515625 9.289062 405.761719 9.089844 C 404.25 8.71875 402.726562 8.347656 401.1875 8.007812 C 399.640625 7.703125 398.097656 7.34375 396.519531 7.097656 C 395.734375 6.960938 394.945312 6.824219 394.15625 6.6875 C 393.363281 6.574219 392.566406 6.460938 391.769531 6.347656 C 385.382812 5.4375 378.773438 5.054688 372.007812 5.140625 C 358.484375 5.367188 344.289062 7.621094 330.164062 12.554688 C 316.0625 17.46875 301.976562 25.027344 289.339844 35.789062 C 301.144531 25.1875 314.617188 17.164062 328.527344 11.664062 C 342.453125 6.15625 356.828125 3.113281 370.816406 2.304688 C 374.3125 2.140625 377.785156 2.027344 381.226562 2.136719 C 382.945312 2.144531 384.65625 2.265625 386.359375 2.34375 C 387.210938 2.386719 388.054688 2.472656 388.902344 2.535156 C 389.746094 2.609375 390.589844 2.65625 391.429688 2.761719 C 398.136719 3.46875 404.695312 4.65625 410.933594 6.332031 C 417.1875 7.964844 423.15625 9.9375 428.945312 11.851562 C 434.730469 13.773438 440.335938 15.664062 445.84375 17.246094 C 451.347656 18.851562 456.34375 19.988281 460.890625 20.710938 C 465.433594 21.4375 469.515625 21.765625 473.136719 21.8125 C 476.757812 21.863281 479.914062 21.640625 482.652344 21.328125 C 483.335938 21.226562 483.992188 21.128906 484.621094 21.03125 C 484.941406 20.984375 485.25 20.941406 485.554688 20.898438 C 485.855469 20.835938 486.152344 20.777344 486.441406 20.71875 C 487.023438 20.601562 487.582031 20.492188 488.117188 20.386719 C 488.65625 20.289062 489.152344 20.132812 489.640625 20.019531 C 493.535156 19.054688 496 18.117188 497.5625 17.617188 C 499.117188 17.089844 499.8125 17.050781 499.96875 17.320312" fill="inherit"/></g><g clip-path="url(#b)" id="change1_7"><path d="M 282.761719 26.621094 C 282.632812 26.90625 282.4375 27.144531 282.152344 27.320312 C 281.859375 27.5 281.488281 27.59375 280.976562 27.652344 C 279.957031 27.765625 278.449219 27.546875 275.914062 27.703125 C 274.648438 27.804688 273.320312 27.957031 271.933594 28.292969 C 270.546875 28.617188 269.101562 29.109375 267.648438 29.832031 C 266.929688 30.207031 266.210938 30.632812 265.503906 31.132812 C 264.804688 31.640625 264.121094 32.21875 263.480469 32.882812 C 262.199219 34.210938 261.097656 35.90625 260.453125 37.929688 C 260.675781 35.914062 261.289062 33.941406 262.253906 32.1875 C 263.203125 30.425781 264.457031 28.871094 265.875 27.574219 C 268.714844 24.984375 272.238281 23.453125 275.597656 23.214844 C 277.273438 23.09375 278.644531 23.289062 279.695312 23.570312 C 280.746094 23.878906 281.488281 24.242188 281.976562 24.628906 C 282.476562 24.996094 282.726562 25.378906 282.832031 25.707031 C 282.933594 26.039062 282.886719 26.335938 282.761719 26.621094" fill="inherit"/></g><g id="change1_6"><path d="M 268.671875 1.210938 C 268.726562 1.515625 268.707031 1.824219 268.578125 2.128906 C 268.449219 2.441406 268.207031 2.726562 267.839844 3.058594 C 267.105469 3.722656 265.804688 4.378906 263.886719 5.871094 C 262.945312 6.636719 261.972656 7.464844 261.050781 8.476562 C 260.121094 9.472656 259.230469 10.632812 258.460938 11.984375 C 258.082031 12.664062 257.734375 13.390625 257.433594 14.164062 C 257.148438 14.941406 256.910156 15.769531 256.746094 16.640625 C 256.425781 18.382812 256.4375 20.324219 256.992188 22.289062 C 256.089844 20.5625 255.519531 18.65625 255.339844 16.738281 C 255.144531 14.820312 255.300781 12.90625 255.726562 11.101562 C 256.578125 7.5 258.546875 4.359375 261.09375 2.34375 C 262.363281 1.335938 263.5625 0.746094 264.550781 0.398438 C 265.554688 0.0742188 266.34375 -0.0390625 266.945312 0.00390625 C 267.542969 0.03125 267.953125 0.203125 268.21875 0.417969 C 268.484375 0.632812 268.613281 0.90625 268.671875 1.210938" fill="inherit"/></g></g></svg>