<?xml version="1.0" encoding="UTF-8" standalone="no"?><svg xmlns="http://www.w3.org/2000/svg" xmlns:xlink="http://www.w3.org/1999/xlink" fill="#ebcf89" height="39.9" preserveAspectRatio="xMidYMid meet" version="1" viewBox="-0.8 229.6 501.6 39.9" width="501.6" zoomAndPan="magnify"><g id="change1_1"><path d="M 498.445312 233.929688 C 466.335938 229.628906 433.371094 230.308594 400.804688 231.359375 C 368.613281 232.402344 336.433594 233.664062 304.292969 235.1875 C 272.191406 236.710938 240.117188 238.539062 208.160156 241.03125 C 175.808594 243.554688 143.609375 246.726562 111.625 250.75 C 78.601562 254.902344 45.871094 260.28125 13.492188 266.128906 C 9.078125 266.925781 4.632812 267.65625 0.234375 268.480469 C -0.820312 268.679688 1.996094 269.550781 2.78125 269.417969 C 7.296875 268.648438 11.773438 267.769531 16.261719 266.910156 C 42.59375 262.203125 69.292969 258.496094 96.246094 255.449219 C 128.335938 251.828125 160.765625 249.078125 193.148438 246.78125 C 225.648438 244.476562 258.246094 242.703125 290.867188 241.261719 C 323.3125 239.832031 355.785156 238.734375 388.265625 237.722656 C 417.765625 236.804688 447.445312 235.675781 476.863281 237.738281 C 474.976562 238.058594 473.09375 238.382812 471.214844 238.714844 C 459.921875 240.714844 448.101562 241.832031 436.511719 242.855469 C 416.082031 244.664062 395.535156 245.992188 374.996094 247.199219 C 374.625 247.222656 375.632812 248.109375 376.160156 248.085938 C 395.941406 247.148438 415.636719 245.71875 435.285156 244.003906 C 445.332031 243.128906 455.503906 242.128906 465.625 241.734375 C 470.550781 241.542969 475.46875 241.332031 480.371094 240.976562 C 483.085938 240.777344 485.796875 240.570312 488.507812 240.351562 C 491.65625 240.097656 494.859375 240.144531 497.988281 239.8125 C 500.332031 239.5625 500.808594 234.246094 498.445312 233.929688" fill="inherit"/></g></svg>